<svg width="32" height="32" viewBox="0 0 32 32" fill="none" xmlns="http://www.w3.org/2000/svg">
<path d="M28.7254 14.7267C29.1307 15.2947 29.3334 15.5801 29.3334 16.0001C29.3334 16.4214 29.1307 16.7054 28.7254 17.2734C26.9041 19.8281 22.2521 25.3334 16.0001 25.3334C9.74675 25.3334 5.09608 19.8267 3.27475 17.2734C2.86941 16.7054 2.66675 16.4201 2.66675 16.0001C2.66675 15.5787 2.86941 15.2947 3.27475 14.7267C5.09608 12.1721 9.74808 6.66675 16.0001 6.66675C22.2534 6.66675 26.9041 12.1734 28.7254 14.7267Z" stroke="black" stroke-width="1.5" stroke-linecap="round" stroke-linejoin="round"/>
<path d="M20 16C20 14.9391 19.5786 13.9217 18.8284 13.1716C18.0783 12.4214 17.0609 12 16 12C14.9391 12 13.9217 12.4214 13.1716 13.1716C12.4214 13.9217 12 14.9391 12 16C12 17.0609 12.4214 18.0783 13.1716 18.8284C13.9217 19.5786 14.9391 20 16 20C17.0609 20 18.0783 19.5786 18.8284 18.8284C19.5786 18.0783 20 17.0609 20 16Z" stroke="black" stroke-width="1.5" stroke-linecap="round" stroke-linejoin="round"/>
</svg>
