<svg width="26" height="28" viewBox="0 0 26 28" fill="none" xmlns="http://www.w3.org/2000/svg">
<path fill-rule="evenodd" clip-rule="evenodd" d="M13.0002 7.03046L12.0143 5.94953C9.70009 3.4122 5.45671 4.2878 3.92491 7.47779C3.20577 8.97819 3.04351 11.1444 4.35668 13.9091C5.62172 16.5711 8.25355 19.7596 13.0002 23.2327C17.7468 19.7596 20.3773 16.5711 21.6437 13.9091C22.9569 11.143 22.796 8.97819 22.0755 7.47779C20.5437 4.2878 16.3003 3.41074 13.9861 5.94806L13.0002 7.03046ZM13.0002 25C-8.08333 10.1398 6.50862 -1.45858 12.7582 4.67647C12.8407 4.75713 12.9218 4.84073 13.0002 4.92726C13.0778 4.84081 13.1585 4.75764 13.2422 4.67793C19.4904 -1.46151 34.0837 10.1383 13.0002 25Z" fill="#323334"/>
</svg>
